<svg width="1576" height="700" viewBox="0 0 1576 700" fill="none" xmlns="http://www.w3.org/2000/svg">
<g clip-path="url(#clip0_11138_17581)">
<path d="M281.47 124.92C253.31 100.02 212.17 87.39 159.18 87.39C139.51 87.39 118.86 89.22 97.67 92.06C60.3 97.07 31.92 107.66 31.92 107.66C31.92 107.66 30.94 126.96 35.67 149.31C39.93 169.4 51.81 187.35 51.81 187.35C51.81 187.35 76.11 179.47 103.97 174.2C119.03 171.35 135.08 170.17 151.58 170.17C177.53 170.17 197.3 175.73 211.15 185.59C232.63 200.88 230.25 242.58 230.25 242.58C220.39 241.17 190.76 240.14 174.38 240.14C144.4 240.14 115.94 245.23 89.78 255.26C63.08 265.52 41.28 281.17 25 301.79C8.41 322.8 0 349.48 0 381.08C0 429.13 16.39 464.23 48.7 485.39C79.62 505.66 121.14 515.94 172.1 515.94C198.85 515.94 225.59 513.49 251.69 509.34C290.75 503.14 324.44 494.81 324.44 494.81V242.77C324.44 189.8 309.98 150.15 281.47 124.92ZM230.25 322.52V429.09C210.75 432.41 192.2 435.36 171.33 434.68C142.9 433.76 122.22 431.38 106.66 416.3C99.38 409.24 95.7 396.87 95.7 379.57C95.7 359.13 102.47 344.48 116.4 334.77C131.3 324.39 153.36 319.13 181.98 319.13C197.52 319.13 224.56 321.89 230.26 322.53L230.25 322.52Z" fill="white"/>
<path d="M656.03 110.31C656.03 110.31 617.98 96.88 595.48 93.29C575.77 90.14 555.67 87.39 535.34 87.39C486.03 87.39 447.55 98.39 420.96 120.09C393.75 142.3 379.96 172.58 379.96 210.09C379.96 238.56 388.34 261.66 404.87 278.76C420.55 294.99 445.6 309.62 479.34 322.27C479.34 322.27 530.01 340.66 540.24 345.18C568.91 357.86 569.18 374.54 569.18 385.63C569.18 400.82 562.57 411.78 548.39 420.13C532.85 429.28 513.89 433.91 492.03 433.91C477.1 433.91 461.46 432.12 445.52 428.81C411.65 421.77 392.18 412.91 392.18 412.91C392.18 412.91 383.73 430.49 377.01 453.27C370.14 476.55 369.35 494.42 369.35 494.42C369.35 494.42 401.11 506.29 429.43 510.83C452.02 514.46 470.28 515.93 495.08 515.93C528.28 515.93 557.92 510.27 583.19 499.1C608.86 487.75 629.08 471.75 643.28 451.55C657.63 431.14 664.9 407.17 664.9 380.31C664.9 356.31 660.34 336.3 651.35 320.83C642.43 305.51 630.4 293.06 615.61 283.85C601.63 275.15 585.97 267.78 569.05 261.96L535.63 250.56C518.6 244.72 503.61 238.09 491.07 230.86C481.08 225.1 476.43 216.09 476.43 202.49C476.43 189.88 481.41 181.73 492.1 176.85C505.15 170.91 520.47 167.89 537.63 167.89C554.79 167.89 581.48 170.74 598.68 177.02C598.68 177.02 642.33 158.06 656.05 110.31H656.03Z" fill="white"/>
<path d="M1554.66 194.28C1540.75 161.94 1519.32 135.78 1490.97 116.52C1462.51 97.19 1426.32 87.39 1383.39 87.39C1340.46 87.39 1304.92 97.18 1276.23 116.49C1247.59 135.75 1226.02 161.92 1212.13 194.27C1198.47 226.05 1191.54 262.31 1191.54 302.04C1191.54 341.77 1198.46 377.39 1212.12 409.4C1226.03 442.05 1247.62 468.24 1276.29 487.25C1304.98 506.28 1341.01 515.93 1383.39 515.93C1425.77 515.93 1462.46 506.27 1490.92 487.22C1519.3 468.21 1540.75 442.03 1554.68 409.39C1568.33 377.36 1575.26 341.24 1575.26 302.03C1575.26 262.82 1568.33 226.07 1554.67 194.26L1554.66 194.28ZM1475.74 302.05C1475.74 344.37 1467.75 377.88 1451.99 401.64C1436.9 424.39 1414.46 435.44 1383.39 435.44C1352.32 435.44 1330.04 424.4 1315.21 401.7C1299.68 377.94 1291.8 344.41 1291.8 302.05C1291.8 259.69 1299.66 225.73 1315.16 202.48C1329.99 180.24 1352.31 169.42 1383.4 169.42C1414.49 169.42 1436.97 180.25 1452.05 202.54C1467.78 225.78 1475.75 259.27 1475.75 302.05H1475.74Z" fill="white"/>
<path d="M1188.99 97C1188.99 97 1172.16 94.15 1156.93 94.23C1127.51 94.38 1102.87 101.28 1083.67 115.18C1073.37 122.65 1064.07 130.99 1055.91 140.08C1052.01 110.18 1049.39 98.2 1049.39 98.2C1049.39 98.2 1034.07 94.85 1026.37 94.27C1012.51 93.24 1005.84 93.27 992.18 94.27C986.05 94.72 966.59 98.2 966.59 98.2V505.26C966.59 505.26 985.61 509.86 1014.82 509.86C1046.6 509.86 1062.29 505.13 1062.29 505.13V302.8C1062.29 269.69 1066.88 244.2 1075.93 227.02C1084.66 210.47 1096.16 198.98 1110.11 192.87C1124.95 186.38 1155.44 179.13 1187.81 186.93C1187.81 186.93 1193.76 166.34 1193.76 141.49C1193.76 116.64 1188.98 97 1188.98 97H1188.99Z" fill="white"/>
<path d="M935 465.85C933.32 443.83 924.77 423.63 924.77 423.63C924.77 423.63 891.92 432.5 873.49 431.63C860.62 431.02 850.62 429.75 843.81 426.04C838.15 422.95 833.97 415.85 831.39 404.93C828.3 391.86 826.73 371.56 826.73 344.6V177.01H923.68C923.68 177.01 928.62 155.51 928.56 135.62C928.5 115.8 923.4 96.51 923.4 96.51H826.73V0H805.84L668.31 153.52L675.02 177.01H731.78V387.91C731.78 431.9 743.47 464.18 766.52 483.85C789.08 503.13 819.96 512.4 858.28 512.9C896.33 513.39 936.15 503.38 936.15 503.38C936.15 503.38 936.8 489.63 934.99 465.85H935Z" fill="white"/>
<path d="M1569.79 531.17C1564.19 540.91 1477.13 700 1139.53 700C905.02 700 615.15 623.78 336.18 623.78C205.09 623.78 98.94 630.08 12.3 655.08C6.41 656.73 0 655.08 0 650.3C0 645.52 5.8 642.18 10.99 639.46C77.92 604.98 212.62 559.02 387.11 559.02C704.78 559.02 954.37 619.28 1188.92 619.28C1444.2 619.28 1552.56 525.03 1561 518.09C1571.82 509.09 1575.24 515.24 1575.24 518.14C1575.24 521.87 1572.19 527.06 1569.78 531.16" fill="white"/>
</g>
<defs>
<clipPath id="clip0_11138_17581">
<rect width="1575.24" height="700" fill="white"/>
</clipPath>
</defs>
</svg>
