<svg version="1.1" xmlns="http://www.w3.org/2000/svg" xmlns:xlink="http://www.w3.org/1999/xlink" x="0px" y="0px" width="100%" viewBox="0 0 792 212" enable-background="new 0 0 792 212" xml:space="preserve">
<path fill="#414241" opacity="1.000000" stroke="none" d="M1.000000,65.468658 C1.804928,63.051609 2.634935,61.113152 3.410957,59.153316 C12.404297,36.440708 29.903360,25.475521 53.480453,23.011412 C68.868736,21.403135 84.049706,23.348238 99.121094,26.234396 C100.537048,26.505550 102.689171,28.509964 102.686356,29.705385 C102.668404,37.350140 102.188942,44.996433 101.735710,52.634773 C101.666367,53.803581 100.947220,54.933830 99.257904,56.158611 C98.852051,54.755356 98.235954,53.375732 98.075127,51.944935 C97.159462,43.798756 93.081894,37.791351 85.567375,34.661869 C72.533836,29.233959 59.095116,28.361603 45.572502,32.726276 C37.422554,35.356827 31.633640,41.066200 27.494116,48.388184 C18.341131,64.577965 17.434118,96.234787 34.466953,114.427399 C48.988651,129.937897 66.644165,132.969299 85.060913,128.077652 C92.007248,126.232635 96.261589,121.221031 98.786766,114.640457 C99.512222,112.749916 100.285881,110.877869 101.037437,108.997345 C101.554901,109.068901 102.072357,109.140465 102.589821,109.212021 C102.708481,110.836662 103.106102,112.498817 102.893585,114.078918 C102.251328,118.854240 101.186485,123.576393 100.637421,128.359573 C100.082581,133.193115 97.608780,135.855270 92.872643,136.668472 C67.456802,141.032471 42.725719,141.064392 20.738035,124.825005 C10.995192,117.629257 5.264652,107.617126 1.353050,96.115448 C1.000000,85.979103 1.000000,75.958214 1.000000,65.468658 z"/>
<path fill="#7A050B" opacity="1.000000" stroke="none" d="M598.861694,196.275848 C597.932739,195.060226 596.933350,194.210861 596.623901,193.158585 C593.802612,183.564758 585.955261,184.020767 578.514282,184.303436 C563.268066,184.882584 549.423462,190.657257 535.590942,196.431396 C511.831329,206.349411 487.290558,212.320084 461.299774,210.864548 C449.340210,210.194824 435.401031,206.608170 426.484680,201.011642 C428.077148,201.196106 429.703430,201.232407 431.257141,201.586792 C467.015320,209.742691 500.570892,203.792892 532.341797,186.004623 C544.650940,179.112854 556.749207,171.698654 569.580933,165.943817 C576.666931,162.765869 583.200378,159.545837 588.808838,154.140350 C593.772888,149.356049 598.988159,145.130325 602.702026,138.943176 C609.718689,127.253761 620.061462,118.380859 630.715881,110.038170 C633.462952,107.887093 634.326111,106.213409 632.835144,102.682510 C628.250427,91.824570 624.171265,80.753426 619.871887,69.774406 C619.228516,68.131401 618.458252,66.538086 617.395691,64.124458 C613.018311,75.250923 608.980347,85.602112 604.873962,95.926094 C601.191772,105.183792 597.329895,114.371277 593.741272,123.664642 C590.572327,131.871124 590.888000,132.278870 599.137451,134.405090 C599.823669,134.581970 600.389221,135.226852 602.312988,136.549698 C589.405762,136.549698 577.979187,136.549698 566.552551,136.549698 C566.467590,136.139038 566.382629,135.728378 566.297668,135.317719 C567.373718,134.930771 568.461975,134.180984 569.523804,134.216797 C575.628540,134.422653 579.020691,130.943634 581.260071,125.856369 C584.870972,117.653320 588.444275,109.433533 591.992493,101.203156 C599.951965,82.740761 607.886414,64.267593 615.829102,45.798004 C616.026001,45.340218 616.115967,44.811119 616.400391,44.420509 C617.982971,42.246689 619.610291,40.105431 621.222290,37.953026 C622.842041,40.065475 624.909729,41.970890 625.999207,44.328400 C629.550476,52.013504 632.740417,59.865463 636.077271,67.649826 C639.840576,76.428856 643.612488,85.204193 647.638489,94.581741 C671.673096,68.634857 684.887939,38.821964 686.429260,3.922961 C689.457886,17.764807 688.240662,31.417984 684.528259,44.947277 C679.168335,64.481125 669.701294,81.981682 657.072021,97.643806 C652.843750,102.887497 651.797974,107.185402 655.298035,112.928886 C657.446045,116.453690 658.813477,120.447289 660.632019,124.181389 C663.360352,129.783691 666.678894,134.626221 673.991821,134.267136 C674.744629,134.230179 675.542419,135.109787 676.146912,136.524353 C664.777710,136.524353 653.408447,136.524353 641.310547,136.524353 C647.601562,129.821136 639.819519,125.554733 639.511169,119.930420 C630.550720,129.616028 624.136292,140.481445 621.516174,153.626450 C622.607361,154.146378 623.465759,154.644562 624.384155,154.977295 C628.000427,156.287491 629.393311,158.143875 628.291626,162.463409 C626.958191,167.691986 626.958679,173.260544 626.377014,178.681458 C626.326782,179.149185 626.414185,179.815536 626.143860,180.048111 C622.240967,183.405304 618.301086,186.720047 614.337036,190.005142 C613.355591,190.818466 612.280884,191.527802 611.205444,192.216949 C609.924377,193.037857 608.612366,193.814056 607.284302,194.557037 C605.894287,195.334686 604.538696,196.309555 603.037781,196.710648 C601.829712,197.033508 600.427368,196.629501 598.861694,196.275848 z"/>
<path fill="#414241" opacity="1.000000" stroke="none" d="M356.448120,134.031647 C357.494598,134.505249 358.135010,134.946091 360.094696,136.295120 C344.856201,136.295120 331.063934,136.295120 317.271667,136.295120 C317.185944,135.913071 317.100220,135.531021 317.014496,135.148972 C318.092957,134.761597 319.180908,134.018616 320.248291,134.047043 C325.486786,134.186493 327.352875,131.209427 327.424042,126.560013 C327.643036,112.249702 327.851807,97.938927 327.975281,83.627571 C328.058594,73.970413 328.000641,64.311935 327.988220,54.654079 C327.977753,46.499756 326.743011,45.124489 318.765930,44.158550 C317.544891,44.010696 316.345886,43.680927 314.941925,42.243954 C316.189484,41.888103 317.440979,41.210098 318.684021,41.225239 C334.639313,41.419579 350.614258,41.332188 366.535645,42.203499 C371.588135,42.480000 377.119415,44.445644 381.346161,47.265362 C391.065613,53.749352 393.166016,66.634018 386.341705,76.931580 C382.634583,82.525551 377.608429,87.245399 372.328979,93.338539 C383.037964,105.074959 393.885773,117.389336 405.305237,129.148636 C407.836914,131.755707 412.376434,132.427567 416.013184,133.938126 C417.089081,134.385010 418.239441,134.652725 419.432739,135.026703 C419.078125,135.830002 419.049927,136.071564 418.940216,136.117188 C407.807617,140.747711 388.806885,136.419861 381.031616,126.968872 C374.697357,119.269508 368.709137,111.251694 363.064178,103.033859 C360.401825,99.158028 357.595886,97.158752 352.864685,97.792511 C350.466980,98.113686 347.990814,97.848663 344.630768,97.848663 C345.113373,108.426567 345.229645,118.702698 346.184753,128.900269 C346.724457,134.662766 352.046143,133.609589 356.448120,134.031647 M372.090881,61.768291 C368.032257,50.288483 356.975952,45.218563 345.011139,49.652271 C345.011139,61.953724 344.979980,74.393761 345.070862,86.832909 C345.078033,87.817436 345.665558,89.200050 346.437439,89.709091 C350.413208,92.330994 362.601135,91.130493 366.337372,87.777206 C374.128632,80.784500 374.239532,71.899773 372.090881,61.768291 z"/>
<path fill="#414241" opacity="1.000000" stroke="none" d="M248.944336,43.978378 C249.671097,42.446594 250.209412,41.218960 250.932831,40.112347 C252.615814,37.537933 254.407990,37.858864 255.936951,40.223465 C256.831146,41.606396 257.492035,43.154484 258.145935,44.676369 C269.089050,70.145416 279.981262,95.636414 290.965302,121.087769 C294.020294,128.166550 297.676849,134.705841 307.002899,134.302917 C307.313477,134.289505 307.652740,134.940430 307.993011,135.296722 C305.031464,137.420670 280.838806,137.824768 275.250336,136.253250 C274.975159,132.928711 275.284668,129.933609 274.402985,127.344116 C272.212769,120.911461 269.663147,114.579407 266.829254,108.403625 C266.154419,106.932961 263.830566,105.379845 262.212677,105.321526 C253.733246,105.015930 245.235062,105.090187 236.748413,105.269737 C235.399261,105.298286 233.324265,106.204941 232.862976,107.262917 C230.014175,113.796623 227.255997,120.398689 225.015762,127.159615 C223.277679,132.405060 224.283463,133.372559 229.947647,134.023712 C231.061066,134.151733 232.131439,134.654144 233.221680,134.983871 C233.149597,135.442352 233.077530,135.900818 233.005447,136.359299 C221.738708,136.359299 210.471954,136.359299 199.205200,136.359299 C199.102005,136.022888 198.998810,135.686478 198.895615,135.350052 C199.746689,134.901825 200.619446,134.029709 201.445435,134.071960 C208.512512,134.433456 211.897705,130.103271 214.347397,124.362038 C218.518204,114.587181 222.770004,104.846916 226.977203,95.087563 C234.269043,78.172714 241.552826,61.254375 248.944336,43.978378 M244.593292,77.080910 C241.933563,83.833496 239.273819,90.586075 236.446747,97.763481 C245.364670,97.763481 253.610626,97.763481 262.598328,97.763481 C258.333984,86.653725 254.185898,75.846878 249.684433,64.119385 C247.795761,68.954063 246.347229,72.662064 244.593292,77.080910 z"/>
<path fill="#454645" opacity="1.000000" stroke="none" d="M519.434143,104.000458 C519.390137,85.854599 519.348022,68.208855 519.284546,50.563187 C519.283508,50.271034 519.023010,49.979813 519.126465,50.196247 C510.616821,50.196247 502.329651,49.742245 494.143463,50.452316 C491.424622,50.688152 488.855743,53.785030 486.439362,55.834503 C485.433899,56.687256 485.006378,58.221413 484.316071,59.445717 C483.790710,59.333614 483.265350,59.221512 482.739990,59.109409 C483.062164,56.054359 483.237244,52.974495 483.747314,49.951138 C484.269836,46.853882 484.199127,42.791962 486.113586,41.062977 C487.694183,39.635548 491.793427,41.119087 494.775421,41.102161 C519.895203,40.959599 545.014709,40.767345 570.134338,40.601406 C570.599121,40.598335 571.064758,40.734840 571.367676,40.781311 C571.367676,47.489342 571.367676,54.046005 571.367676,61.327133 C570.111267,60.328506 569.529907,60.104862 569.391541,59.721420 C566.442688,51.547432 564.941833,50.259281 556.274963,49.909466 C550.151306,49.662300 544.009583,49.861629 537.576416,49.861629 C537.507507,50.211105 537.211853,50.997234 537.218323,51.780880 C537.414551,75.576935 537.545593,99.374207 537.908386,123.167908 C538.054749,132.764999 538.571228,133.054245 548.083862,133.988785 C548.897278,134.068695 549.733704,134.156219 550.495422,134.423019 C550.905273,134.566605 551.179016,135.098846 552.268616,136.259125 C537.243835,136.259125 523.009216,136.259125 508.774597,136.259125 C508.686829,135.877777 508.599091,135.496429 508.511353,135.115082 C509.579498,134.734344 510.655701,134.006424 511.714478,134.030869 C517.374634,134.161453 518.775208,130.549835 518.934814,125.949364 C519.182678,118.802589 519.275513,111.650444 519.434143,104.000458 z"/>
<path fill="#424342" opacity="1.000000" stroke="none" d="M745.020203,104.418968 C747.676025,123.813019 733.081421,137.830597 714.316406,137.715408 C706.421814,137.666946 698.503967,136.300400 690.674683,135.046280 C689.108887,134.795456 686.763550,132.369003 686.719604,130.888092 C686.537659,124.756241 687.057983,118.599586 687.441223,112.459579 C687.493103,111.628502 688.230347,110.840195 689.779663,110.050583 C690.152710,111.685364 690.644836,113.303322 690.878418,114.957787 C691.975220,122.724861 696.372314,127.785210 703.797363,129.815552 C711.797729,132.003220 719.741699,132.202988 726.129700,125.625275 C731.960205,119.621674 731.776062,109.452621 725.296631,103.673843 C721.122070,99.950714 716.005737,97.300697 711.427429,94.008507 C706.315369,90.332535 700.669312,87.099068 696.421326,82.577873 C683.705078,69.043900 688.464172,49.060783 705.649353,42.084698 C716.932678,37.504410 728.461243,38.337719 740.011658,40.803043 C740.997375,41.013428 742.608154,41.974606 742.603821,42.577602 C742.557983,49.037285 742.245300,55.495075 742.005737,61.953384 C741.341675,61.970867 740.677612,61.988354 740.013550,62.005840 C739.643494,60.674931 739.234619,59.353432 738.909973,58.011543 C737.283203,51.288528 732.884399,47.234020 726.266846,46.128288 C718.413391,44.816048 710.807007,45.494633 705.647095,52.741302 C702.499573,57.161736 703.097961,63.956005 707.403870,67.810844 C711.206665,71.215317 715.711182,73.848579 719.968933,76.729065 C724.780396,79.984070 729.868591,82.866615 734.461182,86.399017 C740.182678,90.799744 743.772156,96.736244 745.020203,104.418968 z"/>
<path fill="#454645" opacity="1.000000" stroke="none" d="M155.564636,91.000160 C155.687454,100.646935 155.635971,109.800430 155.988388,118.938347 C156.271408,126.276489 158.306808,128.300720 165.650208,128.856674 C170.453171,129.220306 175.298416,129.190796 180.120361,129.101761 C188.510132,128.946869 190.820618,127.163147 193.568069,119.313759 C193.916107,118.319389 194.517487,117.413696 196.114685,116.533493 C196.335251,117.990234 196.796600,119.459091 196.724075,120.901093 C196.590714,123.552177 196.216660,126.198753 195.812866,128.827225 C194.552719,137.029938 194.342087,137.206329 186.062561,137.186218 C167.775635,137.141800 149.488678,137.088943 131.201996,136.992554 C129.703140,136.984650 128.206146,136.618942 126.708290,136.419495 C126.691597,135.903885 126.674911,135.388290 126.658218,134.872681 C127.953621,134.556976 129.245544,133.989212 130.545059,133.971283 C135.023605,133.909485 136.861130,131.279343 136.927124,127.296555 C137.244064,108.172035 137.468567,89.045784 137.654739,69.919441 C137.706497,64.599327 137.506744,59.276958 137.436935,53.955429 C137.340134,46.576473 136.332687,45.400112 129.075714,44.189495 C128.114410,44.029133 127.155174,43.821289 126.224274,43.538868 C125.998444,43.470348 125.888969,43.018303 125.250275,41.937943 C139.786896,41.937943 153.842590,41.937943 167.898270,41.937943 C167.956650,42.389080 168.015015,42.840214 168.073395,43.291351 C166.287079,43.634876 164.513840,44.152710 162.711899,44.287777 C158.133408,44.630959 155.823502,46.746574 155.831558,51.571270 C155.853241,64.547379 155.667908,77.523834 155.564636,91.000160 z"/>
<path fill="#444544" opacity="1.000000" stroke="none" d="M465.632141,134.040878 C467.640656,134.734543 469.231873,135.450226 466.555237,136.796768 C465.870422,137.141266 464.919647,137.007370 464.091003,137.008072 C452.117554,137.018250 440.144043,137.029892 428.170746,136.985077 C427.117523,136.981140 426.065765,136.584839 424.819763,135.133194 C426.150208,134.729813 427.467072,134.040588 428.813599,133.976578 C432.875122,133.783569 435.012573,131.773361 435.055298,127.754585 C435.322296,102.623627 435.586243,77.492439 435.741455,52.360653 C435.770935,47.585934 433.564697,44.471561 428.315094,44.234097 C426.985992,44.173973 425.678406,43.638485 424.360931,43.321430 C424.416534,42.841858 424.472107,42.362289 424.527679,41.882721 C437.848663,41.882721 451.169678,41.882721 464.490662,41.882721 C464.574036,42.216846 464.657410,42.550972 464.740784,42.885098 C463.845825,43.291897 462.988342,43.896210 462.049988,44.074230 C454.562805,45.494621 453.969757,46.140411 453.864532,53.802418 C453.741150,62.787308 453.553864,71.773125 453.584351,80.757896 C453.631805,94.740578 453.742981,108.724564 454.011627,122.704460 C454.207642,132.905502 455.007660,133.573914 465.632141,134.040878 z"/>
<path fill="#82141A" opacity="1.000000" stroke="none" d="M459.698181,197.748047 C466.253052,197.769882 472.345551,197.769882 478.438080,197.769882 C461.366333,204.035980 440.210327,201.046463 428.442749,192.048889 C437.895721,193.791733 448.565765,195.758972 459.698181,197.748047 z"/>
<path fill="#871D23" opacity="1.000000" stroke="none" d="M675.390747,8.973996 C679.784058,27.862162 676.826538,50.150936 669.175110,55.137539 C673.575806,40.284908 675.352173,25.436901 673.919678,10.265362 C673.856201,9.593653 674.249756,8.878562 674.448669,8.188916 C674.449768,8.185189 674.729004,8.228135 674.847046,8.300462 C674.985535,8.385271 675.089661,8.526155 675.390747,8.973996 z"/>
<path fill="#861D22" opacity="1.000000" stroke="none" d="M667.782349,38.293232 C665.907837,27.662916 664.057312,17.468613 662.406677,8.375400 C668.129272,12.350455 672.931946,35.347294 668.166382,43.940022 C668.033203,42.012642 667.919739,40.370941 667.782349,38.293232 z"/>
<path fill="#83171C" opacity="1.000000" stroke="none" d="M455.511902,190.749329 C458.009460,191.311264 460.112610,191.773178 462.215759,192.235077 C462.010986,192.835281 461.806183,193.435486 461.601410,194.035675 C450.976257,193.769165 441.586304,189.939896 433.343933,182.778137 C440.601807,185.401871 447.859650,188.025589 455.511902,190.749329 z"/>
<path fill="#FDFDFD" opacity="1.000000" stroke="none" d="M372.212067,62.167110 C374.239532,71.899773 374.128632,80.784500 366.337372,87.777206 C362.601135,91.130493 350.413208,92.330994 346.437439,89.709091 C345.665558,89.200050 345.078033,87.817436 345.070862,86.832909 C344.979980,74.393761 345.011139,61.953724 345.011139,49.652271 C356.975952,45.218563 368.032257,50.288483 372.212067,62.167110 z"/>
<path fill="#FCFCFC" opacity="1.000000" stroke="none" d="M244.746002,76.725487 C246.347229,72.662064 247.795761,68.954063 249.684433,64.119385 C254.185898,75.846878 258.333984,86.653725 262.598328,97.763481 C253.610626,97.763481 245.364670,97.763481 236.446747,97.763481 C239.273819,90.586075 241.933563,83.833496 244.746002,76.725487 z"/>
</svg>
