<svg xmlns="http://www.w3.org/2000/svg" viewBox="0 0 140 180">
<rect width="140" height="180" fill="#ffffff"/>
<path fill="#3f3f3f" d="M1.000000,65.468658 C1.804928,63.051609 2.634935,61.113152 3.410957,59.153316 C12.404297,36.440708 29.903360,25.475521 53.480453,23.011412 C68.868736,21.403135 84.049706,23.348238 99.121094,26.234396 C100.537048,26.505550 102.689171,28.509964 102.686356,29.705385 C102.668404,37.350140 102.188942,44.996433 101.735710,52.634773 C101.666367,53.803581 100.947220,54.933830 99.257904,56.158611 C98.852051,54.755356 98.235954,53.375732 98.075127,51.944935 C97.159462,43.798756 93.081894,37.791351 85.567375,34.661869 C72.533836,29.233959 59.095116,28.361603 45.572502,32.726276 C37.422554,35.356827 31.633640,41.066200 27.494116,48.388184 C18.341131,64.577965 17.434118,96.234787 34.466953,114.427399 C48.988651,129.937897 66.644165,132.969299 85.060913,128.077652 C92.007248,126.232635 96.261589,121.221031 98.786766,114.640457 C99.512222,112.749916 100.285881,110.877869 101.037437,108.997345 C101.554901,109.068901 102.072357,109.140465 102.589821,109.212021 C102.708481,110.836662 103.106102,112.498817 102.893585,114.078918 C102.251328,118.854240 101.186485,123.576393 100.637421,128.359573 C100.082581,133.193115 97.608780,135.855270 92.872643,136.668472 C67.456802,141.032471 42.725719,141.064392 20.738035,124.825005 C10.995192,117.629257 5.264652,107.617126 1.353050,96.115448 C1.000000,85.979103 1.000000,75.958214 1.000000,65.468658 z"/>
<circle cx="125" cy="145" r="9" fill="#721011"/>
</svg>
